<svg xmlns="http://www.w3.org/2000/svg" width="319" height="319" fill="none" viewBox="0 0 319 319"><circle cx="159.5" cy="159.5" r="159.5" fill="#27043C"/><path fill="#000" d="M150.983 106.68H79.4414L118.774 65.0625L150.983 106.68Z"/><path fill="#fff" d="M150.983 106.68H79.4414L118.774 65.0625L150.983 106.68Z"/><path fill="#000" d="M118.285 115.625H76L151.669 279.001L118.285 115.625Z"/><path fill="#fff" d="M118.285 115.625H76L151.669 279.001L118.285 115.625Z"/><path fill="#000" d="M192.944 115.625H127.25L160.246 275.561L192.944 115.625Z"/><path fill="#fff" d="M192.944 115.625H127.25L160.246 275.561L192.944 115.625Z"/><path fill="#000" d="M201.907 115.625H244.192L168.523 279.001L201.907 115.625Z"/><path fill="#fff" d="M201.907 115.625H244.192L168.523 279.001L201.907 115.625Z"/><path fill="#000" d="M128.28 62.9994L191.566 62.9994L160.294 104.617L128.28 62.9994Z"/><path fill="#fff" d="M128.28 62.9994L191.566 62.9994L160.294 104.617L128.28 62.9994Z"/><path fill="#000" d="M240.752 106.68H169.211L201.419 65.0625L240.752 106.68Z"/><path fill="#fff" d="M240.752 106.68H169.211L201.419 65.0625L240.752 106.68Z"/></svg>